<mxfile host="app.diagrams.net" agent="Mozilla/5.0 (Windows NT 10.0; Win64; x64) AppleWebKit/537.36 (KHTML, like Gecko) Chrome/140.0.0.0 Safari/537.36" version="28.2.5">
  <diagram id="Il9Fi1deLX2TvpJTLiLy" name="Página-1">
    <mxGraphModel dx="2633" dy="1067" grid="0" gridSize="10" guides="1" tooltips="1" connect="1" arrows="1" fold="1" page="0" pageScale="1" pageWidth="827" pageHeight="1169" math="0" shadow="0">
      <root>
        <mxCell id="0" />
        <mxCell id="1" parent="0" />
        <mxCell id="OoxH8hwJsNauPjpLRao7-24" style="edgeStyle=orthogonalEdgeStyle;rounded=0;orthogonalLoop=1;jettySize=auto;html=1;exitX=1;exitY=0.5;exitDx=0;exitDy=0;entryX=0.5;entryY=0;entryDx=0;entryDy=0;" edge="1" parent="1" source="8" target="OoxH8hwJsNauPjpLRao7-10">
          <mxGeometry relative="1" as="geometry" />
        </mxCell>
        <mxCell id="OoxH8hwJsNauPjpLRao7-26" style="edgeStyle=orthogonalEdgeStyle;rounded=0;orthogonalLoop=1;jettySize=auto;html=1;exitX=0;exitY=0.5;exitDx=0;exitDy=0;entryX=0.5;entryY=0;entryDx=0;entryDy=0;" edge="1" parent="1" source="8" target="qsnHaNQ02W6kuQBdbHIu-45">
          <mxGeometry relative="1" as="geometry" />
        </mxCell>
        <mxCell id="8" value="0. Visualizar Vídeo&#xa;1&gt;2" style="whiteSpace=wrap;strokeWidth=2;fontSize=18;" parent="1" vertex="1">
          <mxGeometry x="59" y="-132" width="260" height="78" as="geometry" />
        </mxCell>
        <mxCell id="qsnHaNQ02W6kuQBdbHIu-43" value="1.1. Reproduzir Vídeo" style="whiteSpace=wrap;strokeWidth=2;fontSize=18;" parent="1" vertex="1">
          <mxGeometry x="-759" y="180" width="260" height="78" as="geometry" />
        </mxCell>
        <mxCell id="qsnHaNQ02W6kuQBdbHIu-44" value="1.2. Pausar Vídeo" style="whiteSpace=wrap;strokeWidth=2;fontSize=18;" parent="1" vertex="1">
          <mxGeometry x="-456" y="180" width="260" height="78" as="geometry" />
        </mxCell>
        <mxCell id="qsnHaNQ02W6kuQBdbHIu-47" style="edgeStyle=none;curved=1;rounded=0;orthogonalLoop=1;jettySize=auto;html=1;exitX=0.5;exitY=1;exitDx=0;exitDy=0;entryX=0.5;entryY=0;entryDx=0;entryDy=0;fontSize=12;startSize=8;endSize=8;" parent="1" source="qsnHaNQ02W6kuQBdbHIu-45" target="qsnHaNQ02W6kuQBdbHIu-44" edge="1">
          <mxGeometry relative="1" as="geometry" />
        </mxCell>
        <mxCell id="qsnHaNQ02W6kuQBdbHIu-45" value="1. Assistir ao Vídeo&#xa;1 + (2/3/4) " style="whiteSpace=wrap;strokeWidth=2;fontSize=18;" parent="1" vertex="1">
          <mxGeometry x="-357" y="26" width="260" height="78" as="geometry" />
        </mxCell>
        <mxCell id="qsnHaNQ02W6kuQBdbHIu-51" value="" style="endArrow=none;html=1;rounded=0;fontSize=12;startSize=8;endSize=8;curved=1;" parent="1" edge="1">
          <mxGeometry width="50" height="50" relative="1" as="geometry">
            <mxPoint x="-758.5" y="266" as="sourcePoint" />
            <mxPoint x="-499.5" y="266" as="targetPoint" />
          </mxGeometry>
        </mxCell>
        <mxCell id="qsnHaNQ02W6kuQBdbHIu-52" value="" style="endArrow=none;html=1;rounded=0;fontSize=12;startSize=8;endSize=8;curved=1;" parent="1" edge="1">
          <mxGeometry width="50" height="50" relative="1" as="geometry">
            <mxPoint x="-455.5" y="265" as="sourcePoint" />
            <mxPoint x="-196.5" y="265" as="targetPoint" />
          </mxGeometry>
        </mxCell>
        <mxCell id="OoxH8hwJsNauPjpLRao7-10" value="2. Fechar Vídeo" style="whiteSpace=wrap;strokeWidth=2;fontSize=18;" vertex="1" parent="1">
          <mxGeometry x="395" y="26" width="260" height="78" as="geometry" />
        </mxCell>
        <mxCell id="OoxH8hwJsNauPjpLRao7-38" value="1.3. Voltar/Avançar Vídeo " style="whiteSpace=wrap;strokeWidth=2;fontSize=18;" vertex="1" parent="1">
          <mxGeometry x="-166" y="180" width="260" height="78" as="geometry" />
        </mxCell>
        <mxCell id="OoxH8hwJsNauPjpLRao7-39" value="" style="endArrow=none;html=1;rounded=0;fontSize=12;startSize=8;endSize=8;curved=1;" edge="1" parent="1">
          <mxGeometry width="50" height="50" relative="1" as="geometry">
            <mxPoint x="-165.5" y="265" as="sourcePoint" />
            <mxPoint x="93.5" y="265" as="targetPoint" />
          </mxGeometry>
        </mxCell>
        <mxCell id="OoxH8hwJsNauPjpLRao7-40" value="1.4. Assistir em tela cheia " style="whiteSpace=wrap;strokeWidth=2;fontSize=18;" vertex="1" parent="1">
          <mxGeometry x="116" y="180" width="260" height="78" as="geometry" />
        </mxCell>
        <mxCell id="OoxH8hwJsNauPjpLRao7-41" value="" style="endArrow=none;html=1;rounded=0;fontSize=12;startSize=8;endSize=8;curved=1;" edge="1" parent="1">
          <mxGeometry width="50" height="50" relative="1" as="geometry">
            <mxPoint x="116.5" y="265" as="sourcePoint" />
            <mxPoint x="375.5" y="265" as="targetPoint" />
          </mxGeometry>
        </mxCell>
        <mxCell id="OoxH8hwJsNauPjpLRao7-43" value="" style="endArrow=classic;html=1;rounded=0;exitX=0.5;exitY=1;exitDx=0;exitDy=0;entryX=0.5;entryY=0;entryDx=0;entryDy=0;" edge="1" parent="1" source="qsnHaNQ02W6kuQBdbHIu-45" target="OoxH8hwJsNauPjpLRao7-38">
          <mxGeometry width="50" height="50" relative="1" as="geometry">
            <mxPoint x="-97" y="165" as="sourcePoint" />
            <mxPoint x="-47" y="115" as="targetPoint" />
          </mxGeometry>
        </mxCell>
        <mxCell id="OoxH8hwJsNauPjpLRao7-45" value="" style="endArrow=classic;html=1;rounded=0;exitX=0.5;exitY=1;exitDx=0;exitDy=0;entryX=0.5;entryY=0;entryDx=0;entryDy=0;" edge="1" parent="1" source="qsnHaNQ02W6kuQBdbHIu-45" target="OoxH8hwJsNauPjpLRao7-40">
          <mxGeometry width="50" height="50" relative="1" as="geometry">
            <mxPoint x="-9" y="164" as="sourcePoint" />
            <mxPoint x="41" y="114" as="targetPoint" />
          </mxGeometry>
        </mxCell>
        <mxCell id="OoxH8hwJsNauPjpLRao7-47" value="" style="endArrow=classic;html=1;rounded=0;exitX=0.5;exitY=1;exitDx=0;exitDy=0;entryX=0.5;entryY=0;entryDx=0;entryDy=0;" edge="1" parent="1" source="qsnHaNQ02W6kuQBdbHIu-45" target="qsnHaNQ02W6kuQBdbHIu-43">
          <mxGeometry width="50" height="50" relative="1" as="geometry">
            <mxPoint x="-327" y="197" as="sourcePoint" />
            <mxPoint x="-277" y="147" as="targetPoint" />
          </mxGeometry>
        </mxCell>
        <mxCell id="OoxH8hwJsNauPjpLRao7-48" value="" style="endArrow=none;html=1;rounded=0;fontSize=12;startSize=8;endSize=8;curved=1;" edge="1" parent="1">
          <mxGeometry width="50" height="50" relative="1" as="geometry">
            <mxPoint x="395.5" y="112" as="sourcePoint" />
            <mxPoint x="654.5" y="112" as="targetPoint" />
          </mxGeometry>
        </mxCell>
      </root>
    </mxGraphModel>
  </diagram>
</mxfile>
